<mxfile host="65bd71144e">
    <diagram id="ciPo3X5teLXdfqjWm5yF" name="Page-1">
        <mxGraphModel dx="2193" dy="303" grid="1" gridSize="10" guides="1" tooltips="1" connect="1" arrows="1" fold="1" page="1" pageScale="1" pageWidth="850" pageHeight="1100" math="0" shadow="0">
            <root>
                <mxCell id="0"/>
                <mxCell id="1" parent="0"/>
                <mxCell id="562" value="&lt;div style=&quot;&quot;&gt;2-Bit Full adder with chips&lt;/div&gt;" style="text;strokeColor=none;align=left;fillColor=none;html=1;verticalAlign=middle;whiteSpace=wrap;rounded=0;" parent="1" vertex="1">
                    <mxGeometry x="-1140" y="281" width="300" height="109" as="geometry"/>
                </mxCell>
                <mxCell id="563" value="Justin, L&lt;br&gt;TEJ3M&lt;br&gt;4-19&lt;br&gt;&lt;span style=&quot;color: rgba(0, 0, 0, 0); font-family: monospace; font-size: 0px;&quot;&gt;%3CmxGraphModel%3E%3Croot%3E%3CmxCell%20id%3D%220%22%2F%3E%3CmxCell%20id%3D%221%22%20parent%3D%220%22%2F%3E%3CmxCell%20id%3D%222%22%20value%3D%225%20V%22%20style%3D%22text%3BstrokeColor%3Dnone%3Balign%3Dcenter%3BfillColor%3Dnone%3Bhtml%3D1%3BverticalAlign%3Dmiddle%3BwhiteSpace%3Dwrap%3Brounded%3D0%3B%22%20vertex%3D%221%22%20parent%3D%221%22%3E%3CmxGeometry%20x%3D%22550%22%20y%3D%22275%22%20width%3D%2260%22%20height%3D%2230%22%20as%3D%22geometry%22%2F%3E%3C%2FmxCell%3E%3C%2Froot%3E%3C%2FmxGraphModel%3E&lt;/span&gt;" style="text;strokeColor=none;align=left;fillColor=none;html=1;verticalAlign=middle;whiteSpace=wrap;rounded=0;" parent="1" vertex="1">
                    <mxGeometry x="-1140" y="300" width="60" height="30" as="geometry"/>
                </mxCell>
                <mxCell id="758" value="&lt;table style=&quot;border: none; color: rgb(240, 240, 240); font-style: normal; font-variant-ligatures: normal; font-variant-caps: normal; font-weight: 400; letter-spacing: normal; orphans: 2; text-align: center; text-transform: none; widows: 2; word-spacing: 0px; -webkit-text-stroke-width: 0px; background-color: rgb(42, 37, 47); text-decoration-thickness: initial; text-decoration-style: initial; text-decoration-color: initial; table-layout: fixed; font-size: 10pt; font-family: Arial; width: 0px; border-collapse: collapse;&quot; data-sheets-root=&quot;1&quot; border=&quot;1&quot; dir=&quot;ltr&quot; cellpadding=&quot;0&quot; cellspacing=&quot;0&quot; xmlns=&quot;http://www.w3.org/1999/xhtml&quot;&gt;&lt;colgroup style=&quot;border-color: rgb(0, 0, 0);&quot;&gt;&lt;col style=&quot;border-color: rgb(0, 0, 0);&quot; width=&quot;23&quot;&gt;&lt;col style=&quot;border-color: rgb(0, 0, 0);&quot; width=&quot;23&quot;&gt;&lt;col style=&quot;border-color: rgb(0, 0, 0);&quot; width=&quot;16&quot;&gt;&lt;col style=&quot;border-color: rgb(0, 0, 0);&quot; width=&quot;23&quot;&gt;&lt;col style=&quot;border-color: rgb(0, 0, 0);&quot; width=&quot;23&quot;&gt;&lt;col style=&quot;border-color: rgb(0, 0, 0);&quot; width=&quot;16&quot;&gt;&lt;col style=&quot;border-color: rgb(0, 0, 0);&quot; width=&quot;43&quot;&gt;&lt;col style=&quot;border-color: rgb(0, 0, 0);&quot; width=&quot;46&quot;&gt;&lt;col style=&quot;border-color: rgb(0, 0, 0);&quot; width=&quot;46&quot;&gt;&lt;/colgroup&gt;&lt;tbody style=&quot;border-color: rgb(0, 0, 0);&quot;&gt;&lt;tr style=&quot;border-color: rgb(0, 0, 0); height: 21px;&quot;&gt;&lt;td style=&quot;border: 1px solid rgb(204, 204, 204); overflow: hidden; padding: 2px 3px; vertical-align: bottom; font-size: 12pt; font-weight: bold; text-align: center;&quot; data-sheets-value=&quot;{&amp;quot;1&amp;quot;:2,&amp;quot;2&amp;quot;:&amp;quot;A₂&amp;quot;}&quot;&gt;A₂&lt;/td&gt;&lt;td style=&quot;border: 1px solid rgb(204, 204, 204); overflow: hidden; padding: 2px 3px; vertical-align: bottom; font-size: 12pt; font-weight: bold; text-align: center;&quot; data-sheets-value=&quot;{&amp;quot;1&amp;quot;:2,&amp;quot;2&amp;quot;:&amp;quot;A₁&amp;quot;}&quot;&gt;A₁&lt;/td&gt;&lt;td style=&quot;border: 1px solid rgb(204, 204, 204); overflow: hidden; padding: 2px 3px; vertical-align: bottom; font-size: 12pt; font-weight: bold; text-align: center;&quot; data-sheets-formula=&quot;=&amp;quot;+&amp;quot;&quot; data-sheets-value=&quot;{&amp;quot;1&amp;quot;:2,&amp;quot;2&amp;quot;:&amp;quot;+&amp;quot;}&quot;&gt;+&lt;/td&gt;&lt;td style=&quot;border: 1px solid rgb(204, 204, 204); overflow: hidden; padding: 2px 3px; vertical-align: bottom; font-size: 12pt; font-weight: bold; text-align: center;&quot; data-sheets-value=&quot;{&amp;quot;1&amp;quot;:2,&amp;quot;2&amp;quot;:&amp;quot;B₂&amp;quot;}&quot;&gt;B₂&lt;/td&gt;&lt;td style=&quot;border: 1px solid rgb(204, 204, 204); overflow: hidden; padding: 2px 3px; vertical-align: bottom; font-size: 12pt; font-weight: bold; text-align: center;&quot; data-sheets-value=&quot;{&amp;quot;1&amp;quot;:2,&amp;quot;2&amp;quot;:&amp;quot;B₁&amp;quot;}&quot;&gt;B₁&lt;/td&gt;&lt;td style=&quot;border: 1px solid rgb(204, 204, 204); overflow: hidden; padding: 2px 3px; vertical-align: bottom; background-color: rgb(0, 0, 0);&quot;&gt;&lt;/td&gt;&lt;td style=&quot;border: 1px solid rgb(204, 204, 204); overflow: hidden; padding: 2px 3px; vertical-align: bottom; font-size: 12pt; font-weight: bold; text-align: center;&quot; data-sheets-value=&quot;{&amp;quot;1&amp;quot;:2,&amp;quot;2&amp;quot;:&amp;quot;Cout&amp;quot;}&quot;&gt;Cout&lt;/td&gt;&lt;td style=&quot;border: 1px solid rgb(204, 204, 204); overflow: hidden; padding: 2px 3px; vertical-align: bottom; font-size: 12pt; font-weight: bold; text-align: center;&quot; data-sheets-value=&quot;{&amp;quot;1&amp;quot;:2,&amp;quot;2&amp;quot;:&amp;quot;Sum₂&amp;quot;}&quot;&gt;Sum₂&lt;/td&gt;&lt;td style=&quot;border: 1px solid rgb(204, 204, 204); overflow: hidden; padding: 2px 3px; vertical-align: bottom; font-size: 12pt; font-weight: bold; text-align: center;&quot; data-sheets-value=&quot;{&amp;quot;1&amp;quot;:2,&amp;quot;2&amp;quot;:&amp;quot;Sum₁&amp;quot;}&quot;&gt;Sum₁&lt;/td&gt;&lt;/tr&gt;&lt;tr style=&quot;border-color: rgb(0, 0, 0); height: 21px;&quot;&gt;&lt;td style=&quot;border: 1px solid rgb(204, 204, 204); overflow: hidden; padding: 2px 3px; vertical-align: bottom; text-align: center;&quot; data-sheets-value=&quot;{&amp;quot;1&amp;quot;:3,&amp;quot;3&amp;quot;:0}&quot;&gt;0&lt;/td&gt;&lt;td style=&quot;border: 1px solid rgb(204, 204, 204); overflow: hidden; padding: 2px 3px; vertical-align: bottom; text-align: center;&quot; data-sheets-value=&quot;{&amp;quot;1&amp;quot;:3,&amp;quot;3&amp;quot;:0}&quot;&gt;0&lt;/td&gt;&lt;td style=&quot;border: 1px solid rgb(204, 204, 204); overflow: hidden; padding: 2px 3px; vertical-align: bottom; text-align: center;&quot; data-sheets-formula=&quot;=&amp;quot;+&amp;quot;&quot; data-sheets-value=&quot;{&amp;quot;1&amp;quot;:2,&amp;quot;2&amp;quot;:&amp;quot;+&amp;quot;}&quot;&gt;+&lt;/td&gt;&lt;td style=&quot;border: 1px solid rgb(204, 204, 204); overflow: hidden; padding: 2px 3px; vertical-align: bottom; text-align: center;&quot; data-sheets-value=&quot;{&amp;quot;1&amp;quot;:3,&amp;quot;3&amp;quot;:0}&quot;&gt;0&lt;/td&gt;&lt;td style=&quot;border: 1px solid rgb(204, 204, 204); overflow: hidden; padding: 2px 3px; vertical-align: bottom; text-align: center;&quot; data-sheets-value=&quot;{&amp;quot;1&amp;quot;:3,&amp;quot;3&amp;quot;:0}&quot;&gt;0&lt;/td&gt;&lt;td style=&quot;border: 1px solid rgb(204, 204, 204); overflow: hidden; padding: 2px 3px; vertical-align: bottom; background-color: rgb(0, 0, 0);&quot;&gt;&lt;/td&gt;&lt;td style=&quot;border: 1px solid rgb(204, 204, 204); overflow: hidden; padding: 2px 3px; vertical-align: bottom; text-align: center;&quot; data-sheets-value=&quot;{&amp;quot;1&amp;quot;:3,&amp;quot;3&amp;quot;:0}&quot;&gt;0&lt;/td&gt;&lt;td style=&quot;border: 1px solid rgb(204, 204, 204); overflow: hidden; padding: 2px 3px; vertical-align: bottom; text-align: center;&quot; data-sheets-value=&quot;{&amp;quot;1&amp;quot;:3,&amp;quot;3&amp;quot;:0}&quot;&gt;0&lt;/td&gt;&lt;td style=&quot;border: 1px solid rgb(204, 204, 204); overflow: hidden; padding: 2px 3px; vertical-align: bottom; text-align: center;&quot; data-sheets-value=&quot;{&amp;quot;1&amp;quot;:3,&amp;quot;3&amp;quot;:0}&quot;&gt;0&lt;/td&gt;&lt;/tr&gt;&lt;tr style=&quot;border-color: rgb(0, 0, 0); height: 21px;&quot;&gt;&lt;td style=&quot;border: 1px solid rgb(204, 204, 204); overflow: hidden; padding: 2px 3px; vertical-align: bottom; text-align: center;&quot; data-sheets-value=&quot;{&amp;quot;1&amp;quot;:3,&amp;quot;3&amp;quot;:0}&quot;&gt;0&lt;/td&gt;&lt;td style=&quot;border: 1px solid rgb(204, 204, 204); overflow: hidden; padding: 2px 3px; vertical-align: bottom; text-align: center;&quot; data-sheets-value=&quot;{&amp;quot;1&amp;quot;:3,&amp;quot;3&amp;quot;:0}&quot;&gt;0&lt;/td&gt;&lt;td style=&quot;border: 1px solid rgb(204, 204, 204); overflow: hidden; padding: 2px 3px; vertical-align: bottom; text-align: center;&quot; data-sheets-formula=&quot;=&amp;quot;+&amp;quot;&quot; data-sheets-value=&quot;{&amp;quot;1&amp;quot;:2,&amp;quot;2&amp;quot;:&amp;quot;+&amp;quot;}&quot;&gt;+&lt;/td&gt;&lt;td style=&quot;border: 1px solid rgb(204, 204, 204); overflow: hidden; padding: 2px 3px; vertical-align: bottom; text-align: center;&quot; data-sheets-value=&quot;{&amp;quot;1&amp;quot;:3,&amp;quot;3&amp;quot;:0}&quot;&gt;0&lt;/td&gt;&lt;td style=&quot;border: 1px solid rgb(204, 204, 204); overflow: hidden; padding: 2px 3px; vertical-align: bottom; text-align: center;&quot; data-sheets-value=&quot;{&amp;quot;1&amp;quot;:3,&amp;quot;3&amp;quot;:1}&quot;&gt;1&lt;/td&gt;&lt;td style=&quot;border: 1px solid rgb(204, 204, 204); overflow: hidden; padding: 2px 3px; vertical-align: bottom; background-color: rgb(0, 0, 0);&quot;&gt;&lt;/td&gt;&lt;td style=&quot;border: 1px solid rgb(204, 204, 204); overflow: hidden; padding: 2px 3px; vertical-align: bottom; text-align: center;&quot; data-sheets-value=&quot;{&amp;quot;1&amp;quot;:3,&amp;quot;3&amp;quot;:0}&quot;&gt;0&lt;/td&gt;&lt;td style=&quot;border: 1px solid rgb(204, 204, 204); overflow: hidden; padding: 2px 3px; vertical-align: bottom; text-align: center;&quot; data-sheets-value=&quot;{&amp;quot;1&amp;quot;:3,&amp;quot;3&amp;quot;:0}&quot;&gt;0&lt;/td&gt;&lt;td style=&quot;border: 1px solid rgb(204, 204, 204); overflow: hidden; padding: 2px 3px; vertical-align: bottom; text-align: center;&quot; data-sheets-value=&quot;{&amp;quot;1&amp;quot;:3,&amp;quot;3&amp;quot;:1}&quot;&gt;1&lt;/td&gt;&lt;/tr&gt;&lt;tr style=&quot;border-color: rgb(0, 0, 0); height: 21px;&quot;&gt;&lt;td style=&quot;border: 1px solid rgb(204, 204, 204); overflow: hidden; padding: 2px 3px; vertical-align: bottom; text-align: center;&quot; data-sheets-value=&quot;{&amp;quot;1&amp;quot;:3,&amp;quot;3&amp;quot;:0}&quot;&gt;0&lt;/td&gt;&lt;td style=&quot;border: 1px solid rgb(204, 204, 204); overflow: hidden; padding: 2px 3px; vertical-align: bottom; text-align: center;&quot; data-sheets-value=&quot;{&amp;quot;1&amp;quot;:3,&amp;quot;3&amp;quot;:0}&quot;&gt;0&lt;/td&gt;&lt;td style=&quot;border: 1px solid rgb(204, 204, 204); overflow: hidden; padding: 2px 3px; vertical-align: bottom; text-align: center;&quot; data-sheets-formula=&quot;=&amp;quot;+&amp;quot;&quot; data-sheets-value=&quot;{&amp;quot;1&amp;quot;:2,&amp;quot;2&amp;quot;:&amp;quot;+&amp;quot;}&quot;&gt;+&lt;/td&gt;&lt;td style=&quot;border: 1px solid rgb(204, 204, 204); overflow: hidden; padding: 2px 3px; vertical-align: bottom; text-align: center;&quot; data-sheets-value=&quot;{&amp;quot;1&amp;quot;:3,&amp;quot;3&amp;quot;:1}&quot;&gt;1&lt;/td&gt;&lt;td style=&quot;border: 1px solid rgb(204, 204, 204); overflow: hidden; padding: 2px 3px; vertical-align: bottom; text-align: center;&quot; data-sheets-value=&quot;{&amp;quot;1&amp;quot;:3,&amp;quot;3&amp;quot;:0}&quot;&gt;0&lt;/td&gt;&lt;td style=&quot;border: 1px solid rgb(204, 204, 204); overflow: hidden; padding: 2px 3px; vertical-align: bottom; background-color: rgb(0, 0, 0);&quot;&gt;&lt;/td&gt;&lt;td style=&quot;border: 1px solid rgb(204, 204, 204); overflow: hidden; padding: 2px 3px; vertical-align: bottom; text-align: center;&quot; data-sheets-value=&quot;{&amp;quot;1&amp;quot;:3,&amp;quot;3&amp;quot;:0}&quot;&gt;0&lt;/td&gt;&lt;td style=&quot;border: 1px solid rgb(204, 204, 204); overflow: hidden; padding: 2px 3px; vertical-align: bottom; text-align: center;&quot; data-sheets-value=&quot;{&amp;quot;1&amp;quot;:3,&amp;quot;3&amp;quot;:1}&quot;&gt;1&lt;/td&gt;&lt;td style=&quot;border: 1px solid rgb(204, 204, 204); overflow: hidden; padding: 2px 3px; vertical-align: bottom; text-align: center;&quot; data-sheets-value=&quot;{&amp;quot;1&amp;quot;:3,&amp;quot;3&amp;quot;:0}&quot;&gt;0&lt;/td&gt;&lt;/tr&gt;&lt;tr style=&quot;border-color: rgb(0, 0, 0); height: 21px;&quot;&gt;&lt;td style=&quot;border: 1px solid rgb(204, 204, 204); overflow: hidden; padding: 2px 3px; vertical-align: bottom; text-align: center;&quot; data-sheets-value=&quot;{&amp;quot;1&amp;quot;:3,&amp;quot;3&amp;quot;:0}&quot;&gt;0&lt;/td&gt;&lt;td style=&quot;border: 1px solid rgb(204, 204, 204); overflow: hidden; padding: 2px 3px; vertical-align: bottom; text-align: center;&quot; data-sheets-value=&quot;{&amp;quot;1&amp;quot;:3,&amp;quot;3&amp;quot;:0}&quot;&gt;0&lt;/td&gt;&lt;td style=&quot;border: 1px solid rgb(204, 204, 204); overflow: hidden; padding: 2px 3px; vertical-align: bottom; text-align: center;&quot; data-sheets-formula=&quot;=&amp;quot;+&amp;quot;&quot; data-sheets-value=&quot;{&amp;quot;1&amp;quot;:2,&amp;quot;2&amp;quot;:&amp;quot;+&amp;quot;}&quot;&gt;+&lt;/td&gt;&lt;td style=&quot;border: 1px solid rgb(204, 204, 204); overflow: hidden; padding: 2px 3px; vertical-align: bottom; text-align: center;&quot; data-sheets-value=&quot;{&amp;quot;1&amp;quot;:3,&amp;quot;3&amp;quot;:1}&quot;&gt;1&lt;/td&gt;&lt;td style=&quot;border: 1px solid rgb(204, 204, 204); overflow: hidden; padding: 2px 3px; vertical-align: bottom; text-align: center;&quot; data-sheets-value=&quot;{&amp;quot;1&amp;quot;:3,&amp;quot;3&amp;quot;:1}&quot;&gt;1&lt;/td&gt;&lt;td style=&quot;border: 1px solid rgb(204, 204, 204); overflow: hidden; padding: 2px 3px; vertical-align: bottom; background-color: rgb(0, 0, 0);&quot;&gt;&lt;/td&gt;&lt;td style=&quot;border: 1px solid rgb(204, 204, 204); overflow: hidden; padding: 2px 3px; vertical-align: bottom; text-align: center;&quot; data-sheets-value=&quot;{&amp;quot;1&amp;quot;:3,&amp;quot;3&amp;quot;:0}&quot;&gt;0&lt;/td&gt;&lt;td style=&quot;border: 1px solid rgb(204, 204, 204); overflow: hidden; padding: 2px 3px; vertical-align: bottom; text-align: center;&quot; data-sheets-value=&quot;{&amp;quot;1&amp;quot;:3,&amp;quot;3&amp;quot;:1}&quot;&gt;1&lt;/td&gt;&lt;td style=&quot;border: 1px solid rgb(204, 204, 204); overflow: hidden; padding: 2px 3px; vertical-align: bottom; text-align: center;&quot; data-sheets-value=&quot;{&amp;quot;1&amp;quot;:3,&amp;quot;3&amp;quot;:1}&quot;&gt;1&lt;/td&gt;&lt;/tr&gt;&lt;tr style=&quot;border-color: rgb(0, 0, 0); height: 21px;&quot;&gt;&lt;td style=&quot;border: 1px solid rgb(204, 204, 204); overflow: hidden; padding: 2px 3px; vertical-align: bottom; text-align: center;&quot; data-sheets-value=&quot;{&amp;quot;1&amp;quot;:3,&amp;quot;3&amp;quot;:0}&quot;&gt;0&lt;/td&gt;&lt;td style=&quot;border: 1px solid rgb(204, 204, 204); overflow: hidden; padding: 2px 3px; vertical-align: bottom; text-align: center;&quot; data-sheets-value=&quot;{&amp;quot;1&amp;quot;:3,&amp;quot;3&amp;quot;:1}&quot;&gt;1&lt;/td&gt;&lt;td style=&quot;border: 1px solid rgb(204, 204, 204); overflow: hidden; padding: 2px 3px; vertical-align: bottom; text-align: center;&quot; data-sheets-formula=&quot;=&amp;quot;+&amp;quot;&quot; data-sheets-value=&quot;{&amp;quot;1&amp;quot;:2,&amp;quot;2&amp;quot;:&amp;quot;+&amp;quot;}&quot;&gt;+&lt;/td&gt;&lt;td style=&quot;border: 1px solid rgb(204, 204, 204); overflow: hidden; padding: 2px 3px; vertical-align: bottom; text-align: center;&quot; data-sheets-value=&quot;{&amp;quot;1&amp;quot;:3,&amp;quot;3&amp;quot;:0}&quot;&gt;0&lt;/td&gt;&lt;td style=&quot;border: 1px solid rgb(204, 204, 204); overflow: hidden; padding: 2px 3px; vertical-align: bottom; text-align: center;&quot; data-sheets-value=&quot;{&amp;quot;1&amp;quot;:3,&amp;quot;3&amp;quot;:0}&quot;&gt;0&lt;/td&gt;&lt;td style=&quot;border: 1px solid rgb(204, 204, 204); overflow: hidden; padding: 2px 3px; vertical-align: bottom; background-color: rgb(0, 0, 0);&quot;&gt;&lt;/td&gt;&lt;td style=&quot;border: 1px solid rgb(204, 204, 204); overflow: hidden; padding: 2px 3px; vertical-align: bottom; text-align: center;&quot; data-sheets-value=&quot;{&amp;quot;1&amp;quot;:3,&amp;quot;3&amp;quot;:0}&quot;&gt;0&lt;/td&gt;&lt;td style=&quot;border: 1px solid rgb(204, 204, 204); overflow: hidden; padding: 2px 3px; vertical-align: bottom; text-align: center;&quot; data-sheets-value=&quot;{&amp;quot;1&amp;quot;:3,&amp;quot;3&amp;quot;:0}&quot;&gt;0&lt;/td&gt;&lt;td style=&quot;border: 1px solid rgb(204, 204, 204); overflow: hidden; padding: 2px 3px; vertical-align: bottom; text-align: center;&quot; data-sheets-value=&quot;{&amp;quot;1&amp;quot;:3,&amp;quot;3&amp;quot;:1}&quot;&gt;1&lt;/td&gt;&lt;/tr&gt;&lt;tr style=&quot;border-color: rgb(0, 0, 0); height: 21px;&quot;&gt;&lt;td style=&quot;border: 1px solid rgb(204, 204, 204); overflow: hidden; padding: 2px 3px; vertical-align: bottom; text-align: center;&quot; data-sheets-value=&quot;{&amp;quot;1&amp;quot;:3,&amp;quot;3&amp;quot;:0}&quot;&gt;0&lt;/td&gt;&lt;td style=&quot;border: 1px solid rgb(204, 204, 204); overflow: hidden; padding: 2px 3px; vertical-align: bottom; text-align: center;&quot; data-sheets-value=&quot;{&amp;quot;1&amp;quot;:3,&amp;quot;3&amp;quot;:1}&quot;&gt;1&lt;/td&gt;&lt;td style=&quot;border: 1px solid rgb(204, 204, 204); overflow: hidden; padding: 2px 3px; vertical-align: bottom; text-align: center;&quot; data-sheets-formula=&quot;=&amp;quot;+&amp;quot;&quot; data-sheets-value=&quot;{&amp;quot;1&amp;quot;:2,&amp;quot;2&amp;quot;:&amp;quot;+&amp;quot;}&quot;&gt;+&lt;/td&gt;&lt;td style=&quot;border: 1px solid rgb(204, 204, 204); overflow: hidden; padding: 2px 3px; vertical-align: bottom; text-align: center;&quot; data-sheets-value=&quot;{&amp;quot;1&amp;quot;:3,&amp;quot;3&amp;quot;:0}&quot;&gt;0&lt;/td&gt;&lt;td style=&quot;border: 1px solid rgb(204, 204, 204); overflow: hidden; padding: 2px 3px; vertical-align: bottom; text-align: center;&quot; data-sheets-value=&quot;{&amp;quot;1&amp;quot;:3,&amp;quot;3&amp;quot;:1}&quot;&gt;1&lt;/td&gt;&lt;td style=&quot;border: 1px solid rgb(204, 204, 204); overflow: hidden; padding: 2px 3px; vertical-align: bottom; background-color: rgb(0, 0, 0);&quot;&gt;&lt;/td&gt;&lt;td style=&quot;border: 1px solid rgb(204, 204, 204); overflow: hidden; padding: 2px 3px; vertical-align: bottom; text-align: center;&quot; data-sheets-value=&quot;{&amp;quot;1&amp;quot;:3,&amp;quot;3&amp;quot;:0}&quot;&gt;0&lt;/td&gt;&lt;td style=&quot;border: 1px solid rgb(204, 204, 204); overflow: hidden; padding: 2px 3px; vertical-align: bottom; text-align: center;&quot; data-sheets-value=&quot;{&amp;quot;1&amp;quot;:3,&amp;quot;3&amp;quot;:1}&quot;&gt;1&lt;/td&gt;&lt;td style=&quot;border: 1px solid rgb(204, 204, 204); overflow: hidden; padding: 2px 3px; vertical-align: bottom; text-align: center;&quot; data-sheets-value=&quot;{&amp;quot;1&amp;quot;:3,&amp;quot;3&amp;quot;:0}&quot;&gt;0&lt;/td&gt;&lt;/tr&gt;&lt;tr style=&quot;border-color: rgb(0, 0, 0); height: 21px;&quot;&gt;&lt;td style=&quot;border: 1px solid rgb(204, 204, 204); overflow: hidden; padding: 2px 3px; vertical-align: bottom; text-align: center;&quot; data-sheets-value=&quot;{&amp;quot;1&amp;quot;:3,&amp;quot;3&amp;quot;:0}&quot;&gt;0&lt;/td&gt;&lt;td style=&quot;border: 1px solid rgb(204, 204, 204); overflow: hidden; padding: 2px 3px; vertical-align: bottom; text-align: center;&quot; data-sheets-value=&quot;{&amp;quot;1&amp;quot;:3,&amp;quot;3&amp;quot;:1}&quot;&gt;1&lt;/td&gt;&lt;td style=&quot;border: 1px solid rgb(204, 204, 204); overflow: hidden; padding: 2px 3px; vertical-align: bottom; text-align: center;&quot; data-sheets-formula=&quot;=&amp;quot;+&amp;quot;&quot; data-sheets-value=&quot;{&amp;quot;1&amp;quot;:2,&amp;quot;2&amp;quot;:&amp;quot;+&amp;quot;}&quot;&gt;+&lt;/td&gt;&lt;td style=&quot;border: 1px solid rgb(204, 204, 204); overflow: hidden; padding: 2px 3px; vertical-align: bottom; text-align: center;&quot; data-sheets-value=&quot;{&amp;quot;1&amp;quot;:3,&amp;quot;3&amp;quot;:1}&quot;&gt;1&lt;/td&gt;&lt;td style=&quot;border: 1px solid rgb(204, 204, 204); overflow: hidden; padding: 2px 3px; vertical-align: bottom; text-align: center;&quot; data-sheets-value=&quot;{&amp;quot;1&amp;quot;:3,&amp;quot;3&amp;quot;:0}&quot;&gt;0&lt;/td&gt;&lt;td style=&quot;border: 1px solid rgb(204, 204, 204); overflow: hidden; padding: 2px 3px; vertical-align: bottom; background-color: rgb(0, 0, 0);&quot;&gt;&lt;/td&gt;&lt;td style=&quot;border: 1px solid rgb(204, 204, 204); overflow: hidden; padding: 2px 3px; vertical-align: bottom; text-align: center;&quot; data-sheets-value=&quot;{&amp;quot;1&amp;quot;:3,&amp;quot;3&amp;quot;:0}&quot;&gt;0&lt;/td&gt;&lt;td style=&quot;border: 1px solid rgb(204, 204, 204); overflow: hidden; padding: 2px 3px; vertical-align: bottom; text-align: center;&quot; data-sheets-value=&quot;{&amp;quot;1&amp;quot;:3,&amp;quot;3&amp;quot;:1}&quot;&gt;1&lt;/td&gt;&lt;td style=&quot;border: 1px solid rgb(204, 204, 204); overflow: hidden; padding: 2px 3px; vertical-align: bottom; text-align: center;&quot; data-sheets-value=&quot;{&amp;quot;1&amp;quot;:3,&amp;quot;3&amp;quot;:1}&quot;&gt;1&lt;/td&gt;&lt;/tr&gt;&lt;tr style=&quot;border-color: rgb(0, 0, 0); height: 21px;&quot;&gt;&lt;td style=&quot;border: 1px solid rgb(204, 204, 204); overflow: hidden; padding: 2px 3px; vertical-align: bottom; text-align: center;&quot; data-sheets-value=&quot;{&amp;quot;1&amp;quot;:3,&amp;quot;3&amp;quot;:0}&quot;&gt;0&lt;/td&gt;&lt;td style=&quot;border: 1px solid rgb(204, 204, 204); overflow: hidden; padding: 2px 3px; vertical-align: bottom; text-align: center;&quot; data-sheets-value=&quot;{&amp;quot;1&amp;quot;:3,&amp;quot;3&amp;quot;:1}&quot;&gt;1&lt;/td&gt;&lt;td style=&quot;border: 1px solid rgb(204, 204, 204); overflow: hidden; padding: 2px 3px; vertical-align: bottom; text-align: center;&quot; data-sheets-formula=&quot;=&amp;quot;+&amp;quot;&quot; data-sheets-value=&quot;{&amp;quot;1&amp;quot;:2,&amp;quot;2&amp;quot;:&amp;quot;+&amp;quot;}&quot;&gt;+&lt;/td&gt;&lt;td style=&quot;border: 1px solid rgb(204, 204, 204); overflow: hidden; padding: 2px 3px; vertical-align: bottom; text-align: center;&quot; data-sheets-value=&quot;{&amp;quot;1&amp;quot;:3,&amp;quot;3&amp;quot;:1}&quot;&gt;1&lt;/td&gt;&lt;td style=&quot;border: 1px solid rgb(204, 204, 204); overflow: hidden; padding: 2px 3px; vertical-align: bottom; text-align: center;&quot; data-sheets-value=&quot;{&amp;quot;1&amp;quot;:3,&amp;quot;3&amp;quot;:1}&quot;&gt;1&lt;/td&gt;&lt;td style=&quot;border: 1px solid rgb(204, 204, 204); overflow: hidden; padding: 2px 3px; vertical-align: bottom; background-color: rgb(0, 0, 0);&quot;&gt;&lt;/td&gt;&lt;td style=&quot;border: 1px solid rgb(204, 204, 204); overflow: hidden; padding: 2px 3px; vertical-align: bottom; text-align: center;&quot; data-sheets-value=&quot;{&amp;quot;1&amp;quot;:3,&amp;quot;3&amp;quot;:1}&quot;&gt;1&lt;/td&gt;&lt;td style=&quot;border: 1px solid rgb(204, 204, 204); overflow: hidden; padding: 2px 3px; vertical-align: bottom; text-align: center;&quot; data-sheets-value=&quot;{&amp;quot;1&amp;quot;:3,&amp;quot;3&amp;quot;:0}&quot;&gt;0&lt;/td&gt;&lt;td style=&quot;border: 1px solid rgb(204, 204, 204); overflow: hidden; padding: 2px 3px; vertical-align: bottom; text-align: center;&quot; data-sheets-value=&quot;{&amp;quot;1&amp;quot;:3,&amp;quot;3&amp;quot;:0}&quot;&gt;0&lt;/td&gt;&lt;/tr&gt;&lt;tr style=&quot;border-color: rgb(0, 0, 0); height: 21px;&quot;&gt;&lt;td style=&quot;border: 1px solid rgb(204, 204, 204); overflow: hidden; padding: 2px 3px; vertical-align: bottom; text-align: center;&quot; data-sheets-value=&quot;{&amp;quot;1&amp;quot;:3,&amp;quot;3&amp;quot;:1}&quot;&gt;1&lt;/td&gt;&lt;td style=&quot;border: 1px solid rgb(204, 204, 204); overflow: hidden; padding: 2px 3px; vertical-align: bottom; text-align: center;&quot; data-sheets-value=&quot;{&amp;quot;1&amp;quot;:3,&amp;quot;3&amp;quot;:0}&quot;&gt;0&lt;/td&gt;&lt;td style=&quot;border: 1px solid rgb(204, 204, 204); overflow: hidden; padding: 2px 3px; vertical-align: bottom; text-align: center;&quot; data-sheets-formula=&quot;=&amp;quot;+&amp;quot;&quot; data-sheets-value=&quot;{&amp;quot;1&amp;quot;:2,&amp;quot;2&amp;quot;:&amp;quot;+&amp;quot;}&quot;&gt;+&lt;/td&gt;&lt;td style=&quot;border: 1px solid rgb(204, 204, 204); overflow: hidden; padding: 2px 3px; vertical-align: bottom; text-align: center;&quot; data-sheets-value=&quot;{&amp;quot;1&amp;quot;:3,&amp;quot;3&amp;quot;:0}&quot;&gt;0&lt;/td&gt;&lt;td style=&quot;border: 1px solid rgb(204, 204, 204); overflow: hidden; padding: 2px 3px; vertical-align: bottom; text-align: center;&quot; data-sheets-value=&quot;{&amp;quot;1&amp;quot;:3,&amp;quot;3&amp;quot;:0}&quot;&gt;0&lt;/td&gt;&lt;td style=&quot;border: 1px solid rgb(204, 204, 204); overflow: hidden; padding: 2px 3px; vertical-align: bottom; background-color: rgb(0, 0, 0);&quot;&gt;&lt;/td&gt;&lt;td style=&quot;border: 1px solid rgb(204, 204, 204); overflow: hidden; padding: 2px 3px; vertical-align: bottom; text-align: center;&quot; data-sheets-value=&quot;{&amp;quot;1&amp;quot;:3,&amp;quot;3&amp;quot;:0}&quot;&gt;0&lt;/td&gt;&lt;td style=&quot;border: 1px solid rgb(204, 204, 204); overflow: hidden; padding: 2px 3px; vertical-align: bottom; text-align: center;&quot; data-sheets-value=&quot;{&amp;quot;1&amp;quot;:3,&amp;quot;3&amp;quot;:1}&quot;&gt;1&lt;/td&gt;&lt;td style=&quot;border: 1px solid rgb(204, 204, 204); overflow: hidden; padding: 2px 3px; vertical-align: bottom; text-align: center;&quot; data-sheets-value=&quot;{&amp;quot;1&amp;quot;:3,&amp;quot;3&amp;quot;:0}&quot;&gt;0&lt;/td&gt;&lt;/tr&gt;&lt;tr style=&quot;border-color: rgb(0, 0, 0); height: 21px;&quot;&gt;&lt;td style=&quot;border: 1px solid rgb(204, 204, 204); overflow: hidden; padding: 2px 3px; vertical-align: bottom; text-align: center;&quot; data-sheets-value=&quot;{&amp;quot;1&amp;quot;:3,&amp;quot;3&amp;quot;:1}&quot;&gt;1&lt;/td&gt;&lt;td style=&quot;border: 1px solid rgb(204, 204, 204); overflow: hidden; padding: 2px 3px; vertical-align: bottom; text-align: center;&quot; data-sheets-value=&quot;{&amp;quot;1&amp;quot;:3,&amp;quot;3&amp;quot;:0}&quot;&gt;0&lt;/td&gt;&lt;td style=&quot;border: 1px solid rgb(204, 204, 204); overflow: hidden; padding: 2px 3px; vertical-align: bottom; text-align: center;&quot; data-sheets-formula=&quot;=&amp;quot;+&amp;quot;&quot; data-sheets-value=&quot;{&amp;quot;1&amp;quot;:2,&amp;quot;2&amp;quot;:&amp;quot;+&amp;quot;}&quot;&gt;+&lt;/td&gt;&lt;td style=&quot;border: 1px solid rgb(204, 204, 204); overflow: hidden; padding: 2px 3px; vertical-align: bottom; text-align: center;&quot; data-sheets-value=&quot;{&amp;quot;1&amp;quot;:3,&amp;quot;3&amp;quot;:0}&quot;&gt;0&lt;/td&gt;&lt;td style=&quot;border: 1px solid rgb(204, 204, 204); overflow: hidden; padding: 2px 3px; vertical-align: bottom; text-align: center;&quot; data-sheets-value=&quot;{&amp;quot;1&amp;quot;:3,&amp;quot;3&amp;quot;:1}&quot;&gt;1&lt;/td&gt;&lt;td style=&quot;border: 1px solid rgb(204, 204, 204); overflow: hidden; padding: 2px 3px; vertical-align: bottom; background-color: rgb(0, 0, 0);&quot;&gt;&lt;/td&gt;&lt;td style=&quot;border: 1px solid rgb(204, 204, 204); overflow: hidden; padding: 2px 3px; vertical-align: bottom; text-align: center;&quot; data-sheets-value=&quot;{&amp;quot;1&amp;quot;:3,&amp;quot;3&amp;quot;:0}&quot;&gt;0&lt;/td&gt;&lt;td style=&quot;border: 1px solid rgb(204, 204, 204); overflow: hidden; padding: 2px 3px; vertical-align: bottom; text-align: center;&quot; data-sheets-value=&quot;{&amp;quot;1&amp;quot;:3,&amp;quot;3&amp;quot;:1}&quot;&gt;1&lt;/td&gt;&lt;td style=&quot;border: 1px solid rgb(204, 204, 204); overflow: hidden; padding: 2px 3px; vertical-align: bottom; text-align: center;&quot; data-sheets-value=&quot;{&amp;quot;1&amp;quot;:3,&amp;quot;3&amp;quot;:1}&quot;&gt;1&lt;/td&gt;&lt;/tr&gt;&lt;tr style=&quot;border-color: rgb(0, 0, 0); height: 21px;&quot;&gt;&lt;td style=&quot;border: 1px solid rgb(204, 204, 204); overflow: hidden; padding: 2px 3px; vertical-align: bottom; text-align: center;&quot; data-sheets-value=&quot;{&amp;quot;1&amp;quot;:3,&amp;quot;3&amp;quot;:1}&quot;&gt;1&lt;/td&gt;&lt;td style=&quot;border: 1px solid rgb(204, 204, 204); overflow: hidden; padding: 2px 3px; vertical-align: bottom; text-align: center;&quot; data-sheets-value=&quot;{&amp;quot;1&amp;quot;:3,&amp;quot;3&amp;quot;:0}&quot;&gt;0&lt;/td&gt;&lt;td style=&quot;border: 1px solid rgb(204, 204, 204); overflow: hidden; padding: 2px 3px; vertical-align: bottom; text-align: center;&quot; data-sheets-formula=&quot;=&amp;quot;+&amp;quot;&quot; data-sheets-value=&quot;{&amp;quot;1&amp;quot;:2,&amp;quot;2&amp;quot;:&amp;quot;+&amp;quot;}&quot;&gt;+&lt;/td&gt;&lt;td style=&quot;border: 1px solid rgb(204, 204, 204); overflow: hidden; padding: 2px 3px; vertical-align: bottom; text-align: center;&quot; data-sheets-value=&quot;{&amp;quot;1&amp;quot;:3,&amp;quot;3&amp;quot;:1}&quot;&gt;1&lt;/td&gt;&lt;td style=&quot;border: 1px solid rgb(204, 204, 204); overflow: hidden; padding: 2px 3px; vertical-align: bottom; text-align: center;&quot; data-sheets-value=&quot;{&amp;quot;1&amp;quot;:3,&amp;quot;3&amp;quot;:0}&quot;&gt;0&lt;/td&gt;&lt;td style=&quot;border: 1px solid rgb(204, 204, 204); overflow: hidden; padding: 2px 3px; vertical-align: bottom; background-color: rgb(0, 0, 0);&quot;&gt;&lt;/td&gt;&lt;td style=&quot;border: 1px solid rgb(204, 204, 204); overflow: hidden; padding: 2px 3px; vertical-align: bottom; text-align: center;&quot; data-sheets-value=&quot;{&amp;quot;1&amp;quot;:3,&amp;quot;3&amp;quot;:1}&quot;&gt;1&lt;/td&gt;&lt;td style=&quot;border: 1px solid rgb(204, 204, 204); overflow: hidden; padding: 2px 3px; vertical-align: bottom; text-align: center;&quot; data-sheets-value=&quot;{&amp;quot;1&amp;quot;:3,&amp;quot;3&amp;quot;:0}&quot;&gt;0&lt;/td&gt;&lt;td style=&quot;border: 1px solid rgb(204, 204, 204); overflow: hidden; padding: 2px 3px; vertical-align: bottom; text-align: center;&quot; data-sheets-value=&quot;{&amp;quot;1&amp;quot;:3,&amp;quot;3&amp;quot;:0}&quot;&gt;0&lt;/td&gt;&lt;/tr&gt;&lt;tr style=&quot;border-color: rgb(0, 0, 0); height: 21px;&quot;&gt;&lt;td style=&quot;border: 1px solid rgb(204, 204, 204); overflow: hidden; padding: 2px 3px; vertical-align: bottom; text-align: center;&quot; data-sheets-value=&quot;{&amp;quot;1&amp;quot;:3,&amp;quot;3&amp;quot;:1}&quot;&gt;1&lt;/td&gt;&lt;td style=&quot;border: 1px solid rgb(204, 204, 204); overflow: hidden; padding: 2px 3px; vertical-align: bottom; text-align: center;&quot; data-sheets-value=&quot;{&amp;quot;1&amp;quot;:3,&amp;quot;3&amp;quot;:0}&quot;&gt;0&lt;/td&gt;&lt;td style=&quot;border: 1px solid rgb(204, 204, 204); overflow: hidden; padding: 2px 3px; vertical-align: bottom; text-align: center;&quot; data-sheets-formula=&quot;=&amp;quot;+&amp;quot;&quot; data-sheets-value=&quot;{&amp;quot;1&amp;quot;:2,&amp;quot;2&amp;quot;:&amp;quot;+&amp;quot;}&quot;&gt;+&lt;/td&gt;&lt;td style=&quot;border: 1px solid rgb(204, 204, 204); overflow: hidden; padding: 2px 3px; vertical-align: bottom; text-align: center;&quot; data-sheets-value=&quot;{&amp;quot;1&amp;quot;:3,&amp;quot;3&amp;quot;:1}&quot;&gt;1&lt;/td&gt;&lt;td style=&quot;border: 1px solid rgb(204, 204, 204); overflow: hidden; padding: 2px 3px; vertical-align: bottom; text-align: center;&quot; data-sheets-value=&quot;{&amp;quot;1&amp;quot;:3,&amp;quot;3&amp;quot;:1}&quot;&gt;1&lt;/td&gt;&lt;td style=&quot;border: 1px solid rgb(204, 204, 204); overflow: hidden; padding: 2px 3px; vertical-align: bottom; background-color: rgb(0, 0, 0);&quot;&gt;&lt;/td&gt;&lt;td style=&quot;border: 1px solid rgb(204, 204, 204); overflow: hidden; padding: 2px 3px; vertical-align: bottom; text-align: center;&quot; data-sheets-value=&quot;{&amp;quot;1&amp;quot;:3,&amp;quot;3&amp;quot;:1}&quot;&gt;1&lt;/td&gt;&lt;td style=&quot;border: 1px solid rgb(204, 204, 204); overflow: hidden; padding: 2px 3px; vertical-align: bottom; text-align: center;&quot; data-sheets-value=&quot;{&amp;quot;1&amp;quot;:3,&amp;quot;3&amp;quot;:0}&quot;&gt;0&lt;/td&gt;&lt;td style=&quot;border: 1px solid rgb(204, 204, 204); overflow: hidden; padding: 2px 3px; vertical-align: bottom; text-align: center;&quot; data-sheets-value=&quot;{&amp;quot;1&amp;quot;:3,&amp;quot;3&amp;quot;:1}&quot;&gt;1&lt;/td&gt;&lt;/tr&gt;&lt;tr style=&quot;border-color: rgb(0, 0, 0); height: 21px;&quot;&gt;&lt;td style=&quot;border: 1px solid rgb(204, 204, 204); overflow: hidden; padding: 2px 3px; vertical-align: bottom; text-align: center;&quot; data-sheets-value=&quot;{&amp;quot;1&amp;quot;:3,&amp;quot;3&amp;quot;:1}&quot;&gt;1&lt;/td&gt;&lt;td style=&quot;border: 1px solid rgb(204, 204, 204); overflow: hidden; padding: 2px 3px; vertical-align: bottom; text-align: center;&quot; data-sheets-value=&quot;{&amp;quot;1&amp;quot;:3,&amp;quot;3&amp;quot;:1}&quot;&gt;1&lt;/td&gt;&lt;td style=&quot;border: 1px solid rgb(204, 204, 204); overflow: hidden; padding: 2px 3px; vertical-align: bottom; text-align: center;&quot; data-sheets-formula=&quot;=&amp;quot;+&amp;quot;&quot; data-sheets-value=&quot;{&amp;quot;1&amp;quot;:2,&amp;quot;2&amp;quot;:&amp;quot;+&amp;quot;}&quot;&gt;+&lt;/td&gt;&lt;td style=&quot;border: 1px solid rgb(204, 204, 204); overflow: hidden; padding: 2px 3px; vertical-align: bottom; text-align: center;&quot; data-sheets-value=&quot;{&amp;quot;1&amp;quot;:3,&amp;quot;3&amp;quot;:0}&quot;&gt;0&lt;/td&gt;&lt;td style=&quot;border: 1px solid rgb(204, 204, 204); overflow: hidden; padding: 2px 3px; vertical-align: bottom; text-align: center;&quot; data-sheets-value=&quot;{&amp;quot;1&amp;quot;:3,&amp;quot;3&amp;quot;:0}&quot;&gt;0&lt;/td&gt;&lt;td style=&quot;border: 1px solid rgb(204, 204, 204); overflow: hidden; padding: 2px 3px; vertical-align: bottom; background-color: rgb(0, 0, 0);&quot;&gt;&lt;/td&gt;&lt;td style=&quot;border: 1px solid rgb(204, 204, 204); overflow: hidden; padding: 2px 3px; vertical-align: bottom; text-align: center;&quot; data-sheets-value=&quot;{&amp;quot;1&amp;quot;:3,&amp;quot;3&amp;quot;:0}&quot;&gt;0&lt;/td&gt;&lt;td style=&quot;border: 1px solid rgb(204, 204, 204); overflow: hidden; padding: 2px 3px; vertical-align: bottom; text-align: center;&quot; data-sheets-value=&quot;{&amp;quot;1&amp;quot;:3,&amp;quot;3&amp;quot;:1}&quot;&gt;1&lt;/td&gt;&lt;td style=&quot;border: 1px solid rgb(204, 204, 204); overflow: hidden; padding: 2px 3px; vertical-align: bottom; text-align: center;&quot; data-sheets-value=&quot;{&amp;quot;1&amp;quot;:3,&amp;quot;3&amp;quot;:1}&quot;&gt;1&lt;/td&gt;&lt;/tr&gt;&lt;tr style=&quot;border-color: rgb(0, 0, 0); height: 21px;&quot;&gt;&lt;td style=&quot;border: 1px solid rgb(204, 204, 204); overflow: hidden; padding: 2px 3px; vertical-align: bottom; text-align: center;&quot; data-sheets-value=&quot;{&amp;quot;1&amp;quot;:3,&amp;quot;3&amp;quot;:1}&quot;&gt;1&lt;/td&gt;&lt;td style=&quot;border: 1px solid rgb(204, 204, 204); overflow: hidden; padding: 2px 3px; vertical-align: bottom; text-align: center;&quot; data-sheets-value=&quot;{&amp;quot;1&amp;quot;:3,&amp;quot;3&amp;quot;:1}&quot;&gt;1&lt;/td&gt;&lt;td style=&quot;border: 1px solid rgb(204, 204, 204); overflow: hidden; padding: 2px 3px; vertical-align: bottom; text-align: center;&quot; data-sheets-formula=&quot;=&amp;quot;+&amp;quot;&quot; data-sheets-value=&quot;{&amp;quot;1&amp;quot;:2,&amp;quot;2&amp;quot;:&amp;quot;+&amp;quot;}&quot;&gt;+&lt;/td&gt;&lt;td style=&quot;border: 1px solid rgb(204, 204, 204); overflow: hidden; padding: 2px 3px; vertical-align: bottom; text-align: center;&quot; data-sheets-value=&quot;{&amp;quot;1&amp;quot;:3,&amp;quot;3&amp;quot;:0}&quot;&gt;0&lt;/td&gt;&lt;td style=&quot;border: 1px solid rgb(204, 204, 204); overflow: hidden; padding: 2px 3px; vertical-align: bottom; text-align: center;&quot; data-sheets-value=&quot;{&amp;quot;1&amp;quot;:3,&amp;quot;3&amp;quot;:1}&quot;&gt;1&lt;/td&gt;&lt;td style=&quot;border: 1px solid rgb(204, 204, 204); overflow: hidden; padding: 2px 3px; vertical-align: bottom; background-color: rgb(0, 0, 0);&quot;&gt;&lt;/td&gt;&lt;td style=&quot;border: 1px solid rgb(204, 204, 204); overflow: hidden; padding: 2px 3px; vertical-align: bottom; text-align: center;&quot; data-sheets-value=&quot;{&amp;quot;1&amp;quot;:3,&amp;quot;3&amp;quot;:1}&quot;&gt;1&lt;/td&gt;&lt;td style=&quot;border: 1px solid rgb(204, 204, 204); overflow: hidden; padding: 2px 3px; vertical-align: bottom; text-align: center;&quot; data-sheets-value=&quot;{&amp;quot;1&amp;quot;:3,&amp;quot;3&amp;quot;:0}&quot;&gt;0&lt;/td&gt;&lt;td style=&quot;border: 1px solid rgb(204, 204, 204); overflow: hidden; padding: 2px 3px; vertical-align: bottom; text-align: center;&quot; data-sheets-value=&quot;{&amp;quot;1&amp;quot;:3,&amp;quot;3&amp;quot;:0}&quot;&gt;0&lt;/td&gt;&lt;/tr&gt;&lt;tr style=&quot;border-color: rgb(0, 0, 0); height: 21px;&quot;&gt;&lt;td style=&quot;border: 1px solid rgb(204, 204, 204); overflow: hidden; padding: 2px 3px; vertical-align: bottom; text-align: center;&quot; data-sheets-value=&quot;{&amp;quot;1&amp;quot;:3,&amp;quot;3&amp;quot;:1}&quot;&gt;1&lt;/td&gt;&lt;td style=&quot;border: 1px solid rgb(204, 204, 204); overflow: hidden; padding: 2px 3px; vertical-align: bottom; text-align: center;&quot; data-sheets-value=&quot;{&amp;quot;1&amp;quot;:3,&amp;quot;3&amp;quot;:1}&quot;&gt;1&lt;/td&gt;&lt;td style=&quot;border: 1px solid rgb(204, 204, 204); overflow: hidden; padding: 2px 3px; vertical-align: bottom; text-align: center;&quot; data-sheets-formula=&quot;=&amp;quot;+&amp;quot;&quot; data-sheets-value=&quot;{&amp;quot;1&amp;quot;:2,&amp;quot;2&amp;quot;:&amp;quot;+&amp;quot;}&quot;&gt;+&lt;/td&gt;&lt;td style=&quot;border: 1px solid rgb(204, 204, 204); overflow: hidden; padding: 2px 3px; vertical-align: bottom; text-align: center;&quot; data-sheets-value=&quot;{&amp;quot;1&amp;quot;:3,&amp;quot;3&amp;quot;:1}&quot;&gt;1&lt;/td&gt;&lt;td style=&quot;border: 1px solid rgb(204, 204, 204); overflow: hidden; padding: 2px 3px; vertical-align: bottom; text-align: center;&quot; data-sheets-value=&quot;{&amp;quot;1&amp;quot;:3,&amp;quot;3&amp;quot;:0}&quot;&gt;0&lt;/td&gt;&lt;td style=&quot;border: 1px solid rgb(204, 204, 204); overflow: hidden; padding: 2px 3px; vertical-align: bottom; background-color: rgb(0, 0, 0);&quot;&gt;&lt;/td&gt;&lt;td style=&quot;border: 1px solid rgb(204, 204, 204); overflow: hidden; padding: 2px 3px; vertical-align: bottom; text-align: center;&quot; data-sheets-value=&quot;{&amp;quot;1&amp;quot;:3,&amp;quot;3&amp;quot;:1}&quot;&gt;1&lt;/td&gt;&lt;td style=&quot;border: 1px solid rgb(204, 204, 204); overflow: hidden; padding: 2px 3px; vertical-align: bottom; text-align: center;&quot; data-sheets-value=&quot;{&amp;quot;1&amp;quot;:3,&amp;quot;3&amp;quot;:0}&quot;&gt;0&lt;/td&gt;&lt;td style=&quot;border: 1px solid rgb(204, 204, 204); overflow: hidden; padding: 2px 3px; vertical-align: bottom; text-align: center;&quot; data-sheets-value=&quot;{&amp;quot;1&amp;quot;:3,&amp;quot;3&amp;quot;:1}&quot;&gt;1&lt;/td&gt;&lt;/tr&gt;&lt;tr style=&quot;border-color: rgb(0, 0, 0); height: 21px;&quot;&gt;&lt;td style=&quot;border: 1px solid rgb(204, 204, 204); overflow: hidden; padding: 2px 3px; vertical-align: bottom; text-align: center;&quot; data-sheets-value=&quot;{&amp;quot;1&amp;quot;:3,&amp;quot;3&amp;quot;:1}&quot;&gt;1&lt;/td&gt;&lt;td style=&quot;border: 1px solid rgb(204, 204, 204); overflow: hidden; padding: 2px 3px; vertical-align: bottom; text-align: center;&quot; data-sheets-value=&quot;{&amp;quot;1&amp;quot;:3,&amp;quot;3&amp;quot;:1}&quot;&gt;1&lt;/td&gt;&lt;td style=&quot;border: 1px solid rgb(204, 204, 204); overflow: hidden; padding: 2px 3px; vertical-align: bottom; text-align: center;&quot; data-sheets-formula=&quot;=&amp;quot;+&amp;quot;&quot; data-sheets-value=&quot;{&amp;quot;1&amp;quot;:2,&amp;quot;2&amp;quot;:&amp;quot;+&amp;quot;}&quot;&gt;+&lt;/td&gt;&lt;td style=&quot;border: 1px solid rgb(204, 204, 204); overflow: hidden; padding: 2px 3px; vertical-align: bottom; text-align: center;&quot; data-sheets-value=&quot;{&amp;quot;1&amp;quot;:3,&amp;quot;3&amp;quot;:1}&quot;&gt;1&lt;/td&gt;&lt;td style=&quot;border: 1px solid rgb(204, 204, 204); overflow: hidden; padding: 2px 3px; vertical-align: bottom; text-align: center;&quot; data-sheets-value=&quot;{&amp;quot;1&amp;quot;:3,&amp;quot;3&amp;quot;:1}&quot;&gt;1&lt;/td&gt;&lt;td style=&quot;border: 1px solid rgb(204, 204, 204); overflow: hidden; padding: 2px 3px; vertical-align: bottom; background-color: rgb(0, 0, 0);&quot;&gt;&lt;/td&gt;&lt;td style=&quot;border: 1px solid rgb(204, 204, 204); overflow: hidden; padding: 2px 3px; vertical-align: bottom; text-align: center;&quot; data-sheets-value=&quot;{&amp;quot;1&amp;quot;:3,&amp;quot;3&amp;quot;:1}&quot;&gt;1&lt;/td&gt;&lt;td style=&quot;border: 1px solid rgb(204, 204, 204); overflow: hidden; padding: 2px 3px; vertical-align: bottom; text-align: center;&quot; data-sheets-value=&quot;{&amp;quot;1&amp;quot;:3,&amp;quot;3&amp;quot;:1}&quot;&gt;1&lt;/td&gt;&lt;td style=&quot;border: 1px solid rgb(204, 204, 204); overflow: hidden; padding: 2px 3px; vertical-align: bottom; text-align: center;&quot; data-sheets-value=&quot;{&amp;quot;1&amp;quot;:3,&amp;quot;3&amp;quot;:0}&quot;&gt;0&lt;/td&gt;&lt;/tr&gt;&lt;/tbody&gt;&lt;/table&gt;" style="text;whiteSpace=wrap;html=1;fontColor=#000000;" parent="1" vertex="1">
                    <mxGeometry x="-1140" y="340" width="290" height="380" as="geometry"/>
                </mxCell>
                <mxCell id="763" style="edgeStyle=none;html=1;entryX=0.5;entryY=1;entryDx=0;entryDy=0;rounded=0;" edge="1" parent="1" source="759" target="760">
                    <mxGeometry relative="1" as="geometry">
                        <Array as="points">
                            <mxPoint x="-590" y="610"/>
                            <mxPoint x="-195" y="610"/>
                        </Array>
                    </mxGeometry>
                </mxCell>
                <mxCell id="779" style="edgeStyle=none;rounded=0;html=1;entryX=0;entryY=0.5;entryDx=0;entryDy=0;" edge="1" parent="1" source="759" target="777">
                    <mxGeometry relative="1" as="geometry"/>
                </mxCell>
                <mxCell id="759" value="Full Adder" style="whiteSpace=wrap;html=1;" vertex="1" parent="1">
                    <mxGeometry x="-680" y="460" width="190" height="100" as="geometry"/>
                </mxCell>
                <mxCell id="774" style="edgeStyle=none;rounded=0;html=1;" edge="1" parent="1" source="760" target="773">
                    <mxGeometry relative="1" as="geometry"/>
                </mxCell>
                <mxCell id="760" value="Full Adder" style="whiteSpace=wrap;html=1;" vertex="1" parent="1">
                    <mxGeometry x="-290" y="450" width="190" height="100" as="geometry"/>
                </mxCell>
                <mxCell id="762" style="edgeStyle=none;html=1;entryX=0;entryY=0.5;entryDx=0;entryDy=0;" edge="1" parent="1" source="761" target="759">
                    <mxGeometry relative="1" as="geometry"/>
                </mxCell>
                <mxCell id="761" value="A" style="text;strokeColor=none;align=center;fillColor=none;html=1;verticalAlign=middle;whiteSpace=wrap;rounded=0;" vertex="1" parent="1">
                    <mxGeometry x="-850" y="495" width="60" height="30" as="geometry"/>
                </mxCell>
                <mxCell id="766" style="edgeStyle=none;rounded=0;html=1;entryX=0;entryY=0.75;entryDx=0;entryDy=0;" edge="1" parent="1" source="764" target="759">
                    <mxGeometry relative="1" as="geometry"/>
                </mxCell>
                <mxCell id="764" value="B" style="text;strokeColor=none;align=center;fillColor=none;html=1;verticalAlign=middle;whiteSpace=wrap;rounded=0;" vertex="1" parent="1">
                    <mxGeometry x="-850" y="525" width="60" height="30" as="geometry"/>
                </mxCell>
                <mxCell id="782" style="edgeStyle=none;rounded=0;html=1;exitX=0.5;exitY=0;exitDx=0;exitDy=0;exitPerimeter=0;entryX=0.334;entryY=1.017;entryDx=0;entryDy=0;entryPerimeter=0;endArrow=none;endFill=0;" edge="1" parent="1" source="767" target="759">
                    <mxGeometry relative="1" as="geometry"/>
                </mxCell>
                <mxCell id="767" value="" style="pointerEvents=1;verticalLabelPosition=bottom;shadow=0;dashed=0;align=center;html=1;verticalAlign=top;shape=mxgraph.electrical.signal_sources.protective_earth;" vertex="1" parent="1">
                    <mxGeometry x="-630" y="630" width="25" height="20" as="geometry"/>
                </mxCell>
                <mxCell id="769" value="" style="edgeStyle=none;rounded=0;html=1;" edge="1" parent="1" source="768" target="760">
                    <mxGeometry relative="1" as="geometry"/>
                </mxCell>
                <mxCell id="768" value="A2" style="text;strokeColor=none;align=center;fillColor=none;html=1;verticalAlign=middle;whiteSpace=wrap;rounded=0;" vertex="1" parent="1">
                    <mxGeometry x="-380" y="480" width="60" height="30" as="geometry"/>
                </mxCell>
                <mxCell id="771" value="" style="edgeStyle=none;rounded=0;html=1;" edge="1" parent="1" source="770" target="760">
                    <mxGeometry relative="1" as="geometry">
                        <Array as="points">
                            <mxPoint x="-290" y="530"/>
                        </Array>
                    </mxGeometry>
                </mxCell>
                <mxCell id="770" value="B2" style="text;strokeColor=none;align=center;fillColor=none;html=1;verticalAlign=middle;whiteSpace=wrap;rounded=0;" vertex="1" parent="1">
                    <mxGeometry x="-390" y="515" width="60" height="30" as="geometry"/>
                </mxCell>
                <mxCell id="772" value="Cin" style="text;strokeColor=none;align=center;fillColor=none;html=1;verticalAlign=middle;whiteSpace=wrap;rounded=0;" vertex="1" parent="1">
                    <mxGeometry x="-647.5" y="660" width="60" height="30" as="geometry"/>
                </mxCell>
                <mxCell id="773" value="Sum 2" style="text;strokeColor=none;align=center;fillColor=none;html=1;verticalAlign=middle;whiteSpace=wrap;rounded=0;" vertex="1" parent="1">
                    <mxGeometry x="-70" y="480" width="60" height="30" as="geometry"/>
                </mxCell>
                <mxCell id="777" value="Sum" style="text;strokeColor=none;align=center;fillColor=none;html=1;verticalAlign=middle;whiteSpace=wrap;rounded=0;" vertex="1" parent="1">
                    <mxGeometry x="-460" y="485" width="60" height="30" as="geometry"/>
                </mxCell>
                <mxCell id="783" value="Cout1&amp;nbsp; To Cin2" style="text;strokeColor=none;align=center;fillColor=none;html=1;verticalAlign=middle;whiteSpace=wrap;rounded=0;" vertex="1" parent="1">
                    <mxGeometry x="-470" y="620" width="110" height="30" as="geometry"/>
                </mxCell>
            </root>
        </mxGraphModel>
    </diagram>
</mxfile>